TITLE ""
FILE "P1Q_t_1569-1577.mp3" MP3
  TRACK 01 AUDIO
    TITLE "P1Q_t_1569-1577_01"
    INDEX 01 00:00:00
  TRACK 02 AUDIO
    TITLE "P1Q_t_1569-1577_02"
    INDEX 01 00:00:08
  TRACK 03 AUDIO
    TITLE "P1Q_t_1569-1577_03"
    INDEX 01 00:01:18
  TRACK 04 AUDIO
    TITLE "P1Q_t_1569-1577_04"
    INDEX 01 00:01:37
  TRACK 05 AUDIO
    TITLE "P1Q_t_1569-1577_05"
    INDEX 01 00:03:69
  TRACK 06 AUDIO
    TITLE "P1Q_t_1569-1577_06"
    INDEX 01 00:04:12
  TRACK 07 AUDIO
    TITLE "P1Q_t_1569-1577_07"
    INDEX 01 00:08:47
  TRACK 08 AUDIO
    TITLE "P1Q_t_1569-1577_08"
    INDEX 01 00:09:21
  TRACK 09 AUDIO
    TITLE "P1Q_t_1569-1577_09"
    INDEX 01 00:10:46
  TRACK 10 AUDIO
    TITLE "P1Q_t_1569-1577_10"
    INDEX 01 00:11:16
  TRACK 11 AUDIO
    TITLE "P1Q_t_1569-1577_11"
    INDEX 01 00:12:39
  TRACK 12 AUDIO
    TITLE "P1Q_t_1569-1577_12"
    INDEX 01 00:12:62
  TRACK 13 AUDIO
    TITLE "P1Q_t_1569-1577_13"
    INDEX 01 00:14:16
  TRACK 14 AUDIO
    TITLE "P1Q_t_1569-1577_14"
    INDEX 01 00:14:36
  TRACK 15 AUDIO
    TITLE "P1Q_t_1569-1577_15"
    INDEX 01 00:19:31
  TRACK 16 AUDIO
    TITLE "P1Q_t_1569-1577_16"
    INDEX 01 00:20:03
  TRACK 17 AUDIO
    TITLE "P1Q_t_1569-1577_17"
    INDEX 01 00:21:20
  TRACK 18 AUDIO
    TITLE "P1Q_t_1569-1577_18"
    INDEX 01 00:21:42
  TRACK 19 AUDIO
    TITLE "P1Q_t_1569-1577_19"
    INDEX 01 00:25:38
  TRACK 20 AUDIO
    TITLE "P1Q_t_1569-1577_20"
    INDEX 01 00:25:57
  TRACK 21 AUDIO
    TITLE "P1Q_t_1569-1577_21"
    INDEX 01 00:29:61
  TRACK 22 AUDIO
    TITLE "P1Q_t_1569-1577_22"
    INDEX 01 00:30:33
  TRACK 23 AUDIO
    TITLE "P1Q_t_1569-1577_23"
    INDEX 01 00:31:46
  TRACK 24 AUDIO
    TITLE "P1Q_t_1569-1577_24"
    INDEX 01 00:31:66
  TRACK 25 AUDIO
    TITLE "P1Q_t_1569-1577_25"
    INDEX 01 00:34:25
  TRACK 26 AUDIO
    TITLE "P1Q_t_1569-1577_26"
    INDEX 01 00:34:44
  TRACK 27 AUDIO
    TITLE "P1Q_t_1569-1577_27"
    INDEX 01 00:39:12
  TRACK 28 AUDIO
    TITLE "P1Q_t_1569-1577_28"
    INDEX 01 00:39:57
  TRACK 29 AUDIO
    TITLE "P1Q_t_1569-1577_29"
    INDEX 01 00:41:05
  TRACK 30 AUDIO
    TITLE "P1Q_t_1569-1577_30"
    INDEX 01 00:41:25
  TRACK 31 AUDIO
    TITLE "P1Q_t_1569-1577_31"
    INDEX 01 00:44:57
  TRACK 32 AUDIO
    TITLE "P1Q_t_1569-1577_32"
    INDEX 01 00:45:01
  TRACK 33 AUDIO
    TITLE "P1Q_t_1569-1577_33"
    INDEX 01 00:49:32
  TRACK 34 AUDIO
    TITLE "P1Q_t_1569-1577_34"
    INDEX 01 00:50:02
  TRACK 35 AUDIO
    TITLE "P1Q_t_1569-1577_35"
    INDEX 01 00:51:17
  TRACK 36 AUDIO
    TITLE "P1Q_t_1569-1577_36"
    INDEX 01 00:51:39
  TRACK 37 AUDIO
    TITLE "P1Q_t_1569-1577_37"
    INDEX 01 00:54:61
  TRACK 38 AUDIO
    TITLE "P1Q_t_1569-1577_38"
    INDEX 01 00:55:05
  TRACK 39 AUDIO
    TITLE "P1Q_t_1569-1577_39"
    INDEX 01 01:00:05
  TRACK 40 AUDIO
    TITLE "P1Q_t_1569-1577_40"
    INDEX 01 01:00:52
  TRACK 41 AUDIO
    TITLE "P1Q_t_1569-1577_41"
    INDEX 01 01:02:06
  TRACK 42 AUDIO
    TITLE "P1Q_t_1569-1577_42"
    INDEX 01 01:02:27
  TRACK 43 AUDIO
    TITLE "P1Q_t_1569-1577_43"
    INDEX 01 01:05:33
  TRACK 44 AUDIO
    TITLE "P1Q_t_1569-1577_44"
    INDEX 01 01:05:55
  TRACK 45 AUDIO
    TITLE "P1Q_t_1569-1577_45"
    INDEX 01 01:10:38
  TRACK 46 AUDIO
    TITLE "P1Q_t_1569-1577_46"
    INDEX 01 01:11:08
  TRACK 47 AUDIO
    TITLE "P1Q_t_1569-1577_47"
    INDEX 01 01:12:20
  TRACK 48 AUDIO
    TITLE "P1Q_t_1569-1577_48"
    INDEX 01 01:12:39
  TRACK 49 AUDIO
    TITLE "P1Q_t_1569-1577_49"
    INDEX 01 01:15:34
  TRACK 50 AUDIO
    TITLE "P1Q_t_1569-1577_50"
    INDEX 01 01:15:55
  TRACK 51 AUDIO
    TITLE "P1Q_t_1569-1577_51"
    INDEX 01 01:20:23
  TRACK 52 AUDIO
    TITLE "P1Q_t_1569-1577_52"
    INDEX 01 01:20:68
  TRACK 53 AUDIO
    TITLE "P1Q_t_1569-1577_53"
    INDEX 01 01:22:24
  TRACK 54 AUDIO
    TITLE "P1Q_t_1569-1577_54"
    INDEX 01 01:22:45
  TRACK 55 AUDIO
    TITLE "P1Q_t_1569-1577_55"
    INDEX 01 01:24:44
  TRACK 56 AUDIO
    TITLE "P1Q_t_1569-1577_56"
    INDEX 01 01:24:64
  TRACK 57 AUDIO
    TITLE "P1Q_t_1569-1577_57"
    INDEX 01 01:28:70
